# xmcd
#
# Track frame offsets: 
#        150
#        4962
#        18589
#        32845
#        36609
#        48669
#        76224
#        79864
#        104144
#        120010
#        136089
#        140580
#        152570
#        154504
#        175188
#        187783
#
# Disc length: 2766 seconds
#
# Revision: 1
# Processed by: cddbd v1.5.2PL0 Copyright (c) Steve Scherf et al.
# Submitted via: ExactAudioCopy v1.0b3
#
DISCID=c70acc10
DTITLE=Alicia Keys - Here
DYEAR=2016
DGENRE=R&B
TTITLE0=The Beginning (Interlude)
TTITLE1=The Gospel
TTITLE2=Pawn It All
TTITLE3=Elaine Brown (Interlude)
TTITLE4=Kill Your Mama
TTITLE5=She Don't Really Care ... 1 Luv
TTITLE6=Elevate (Interlude)
TTITLE7=Illusion of Bliss
TTITLE8=Blended Family (What You Do for Love) (feat. A$AP Rocky)
TTITLE9=Work On It
TTITLE10=Cocoa Butter (Cross and Pic Interlude)
TTITLE11=Girl Can't Be Herself
TTITLE12=You Glow (Interlude)
TTITLE13=More Than We Know
TTITLE14=Where Do We Begin Now
TTITLE15=Holy War
EXTD=
EXTT0=
EXTT1=
EXTT2=
EXTT3=
EXTT4=
EXTT5=
EXTT6=
EXTT7=
EXTT8=
EXTT9=
EXTT10=
EXTT11=
EXTT12=
EXTT13=
EXTT14=
EXTT15=
PLAYORDER=
